<svg version="1.1" id="Layer_1" xmlns="http://www.w3.org/2000/svg" xmlns:xlink="http://www.w3.org/1999/xlink" x="0px" y="0px"
	 width="100%" viewBox="0 0 500 500" enable-background="new 0 0 500 500" xml:space="preserve">
<path fill="#FFFDFE" opacity="1.000000" stroke="none" 
	d="
M1.000000,126.000000 
	C1.000000,84.010361 1.000000,42.520725 1.000000,1.015543 
	C167.614700,1.015543 334.229401,1.015543 500.922058,1.015543 
	C500.922058,167.573044 500.922058,334.146149 500.922058,500.859619 
	C334.333405,500.859619 167.666718,500.859619 1.000000,500.859619 
	C1.000000,376.103821 1.000000,251.301910 1.000000,126.000000 
M474.999756,102.500000 
	C474.999054,79.500931 475.004700,56.501865 474.993530,33.502808 
	C474.990417,27.101942 474.967621,27.098202 468.368744,27.098169 
	C324.707062,27.097445 181.045349,27.097584 37.383656,27.097713 
	C29.172781,27.097721 29.166710,27.098354 29.166636,35.405464 
	C29.165359,178.900513 29.165407,322.395538 29.166531,465.890594 
	C29.166586,472.948151 29.172367,472.954071 36.385109,472.954132 
	C180.046814,472.955261 323.708496,472.955414 467.370209,472.953857 
	C474.996826,472.953796 474.999207,472.946259 474.999237,465.487488 
	C474.999786,344.824982 474.999695,224.162491 474.999756,102.500000 
z"/>
<path fill="#EA77DF" opacity="1.000000" stroke="none" 
	d="
M474.999756,103.000000 
	C474.999695,224.162491 474.999786,344.824982 474.999237,465.487488 
	C474.999207,472.946259 474.996826,472.953796 467.370209,472.953857 
	C323.708496,472.955414 180.046814,472.955261 36.385109,472.954132 
	C29.172367,472.954071 29.166586,472.948151 29.166531,465.890594 
	C29.165407,322.395538 29.165359,178.900513 29.166636,35.405464 
	C29.166710,27.098354 29.172781,27.097721 37.383656,27.097713 
	C181.045349,27.097584 324.707062,27.097445 468.368744,27.098169 
	C474.967621,27.098202 474.990417,27.101942 474.993530,33.502808 
	C475.004700,56.501865 474.999054,79.500931 474.999756,103.000000 
M472.028717,216.500000 
	C472.028870,156.836716 472.029327,97.173424 472.028625,37.510132 
	C472.028564,30.945717 472.025452,30.942772 465.616394,30.942719 
	C322.791077,30.941532 179.965744,30.972904 37.140598,30.813604 
	C31.910295,30.807770 30.869322,32.315525 30.873854,37.243881 
	C31.004932,179.735748 31.004669,322.227814 30.874628,464.719696 
	C30.870150,469.628387 31.879757,471.167328 37.124573,471.161469 
	C179.949722,471.002167 322.775055,471.034149 465.600372,471.032990 
	C472.024567,471.032928 472.028656,471.027954 472.028717,464.486145 
	C472.029480,382.157440 472.028961,299.828705 472.028717,216.500000 
z"/>
<path fill="#E13ED2" opacity="1.000000" stroke="none" 
	d="
M472.028748,217.000000 
	C472.028961,299.828705 472.029480,382.157440 472.028717,464.486145 
	C472.028656,471.027954 472.024567,471.032928 465.600372,471.032990 
	C322.775055,471.034149 179.949722,471.002167 37.124573,471.161469 
	C31.879757,471.167328 30.870150,469.628387 30.874628,464.719696 
	C31.004669,322.227814 31.004932,179.735748 30.873854,37.243881 
	C30.869322,32.315525 31.910295,30.807770 37.140598,30.813604 
	C179.965744,30.972904 322.791077,30.941532 465.616394,30.942719 
	C472.025452,30.942772 472.028564,30.945717 472.028625,37.510132 
	C472.029327,97.173424 472.028870,156.836716 472.028748,217.000000 
M34.080570,121.500000 
	C34.080559,234.476791 34.079781,347.453583 34.082401,460.430359 
	C34.082565,467.441864 34.553246,467.934631 41.362137,467.934814 
	C182.000061,467.938660 322.637970,467.938507 463.275909,467.934631 
	C469.964844,467.934448 469.980133,467.915161 469.980255,461.306000 
	C469.983032,320.501434 469.982819,179.696884 469.979492,38.892323 
	C469.979340,32.056187 469.963440,32.048176 463.004120,32.048096 
	C322.699463,32.046516 182.394806,32.046616 42.090157,32.047752 
	C34.821735,32.047810 34.089550,32.753014 34.085999,40.016453 
	C34.072884,66.844292 34.080784,93.672150 34.080570,121.500000 
z"/>
<path fill="#EB82E2" opacity="1.000000" stroke="none" 
	d="
M34.080677,121.000000 
	C34.080784,93.672150 34.072884,66.844292 34.085999,40.016453 
	C34.089550,32.753014 34.821735,32.047810 42.090157,32.047752 
	C182.394806,32.046616 322.699463,32.046516 463.004120,32.048096 
	C469.963440,32.048176 469.979340,32.056187 469.979492,38.892323 
	C469.982819,179.696884 469.983032,320.501434 469.980255,461.306000 
	C469.980133,467.915161 469.964844,467.934448 463.275909,467.934631 
	C322.637970,467.938507 182.000061,467.938660 41.362137,467.934814 
	C34.553246,467.934631 34.082565,467.441864 34.082401,460.430359 
	C34.079781,347.453583 34.080559,234.476791 34.080677,121.000000 
M62.500015,466.049011 
	C194.795731,466.048981 327.091431,466.049164 459.387146,466.048248 
	C466.261047,466.048218 466.265839,466.043854 466.265900,459.403961 
	C466.266846,320.443420 466.266937,181.482910 466.265625,42.522385 
	C466.265564,35.800625 466.258911,35.795479 459.439636,35.795429 
	C320.978973,35.794453 182.518295,35.794464 44.057632,35.795540 
	C36.777992,35.795597 36.775291,35.800797 36.775265,43.076004 
	C36.774727,181.536667 36.774845,319.997345 36.774940,458.458008 
	C36.774940,459.457733 36.854836,460.464752 36.762688,461.455841 
	C36.434166,464.989258 38.148983,466.153900 41.506565,466.085205 
	C48.168514,465.948822 54.835270,466.047546 62.500015,466.049011 
z"/>
<path fill="#FFFEFF" opacity="1.000000" stroke="none" 
	d="
M62.000031,466.049072 
	C54.835270,466.047546 48.168514,465.948822 41.506565,466.085205 
	C38.148983,466.153900 36.434166,464.989258 36.762688,461.455841 
	C36.854836,460.464752 36.774940,459.457733 36.774940,458.458008 
	C36.774845,319.997345 36.774727,181.536667 36.775265,43.076004 
	C36.775291,35.800797 36.777992,35.795597 44.057632,35.795540 
	C182.518295,35.794464 320.978973,35.794453 459.439636,35.795429 
	C466.258911,35.795479 466.265564,35.800625 466.265625,42.522385 
	C466.266937,181.482910 466.266846,320.443420 466.265900,459.403961 
	C466.265839,466.043854 466.261047,466.048218 459.387146,466.048248 
	C327.091431,466.049164 194.795731,466.048981 62.000031,466.049072 
M283.611908,208.509125 
	C282.691559,209.446182 281.771240,210.383224 280.316284,211.528732 
	C279.978271,211.701340 279.640259,211.873947 278.746979,211.560089 
	C278.268738,211.539291 277.790497,211.518509 276.543610,211.247375 
	C272.555878,212.282730 268.542755,213.234573 264.604156,214.431595 
	C263.907471,214.643341 263.521484,215.877579 262.206177,216.814667 
	C261.137299,216.872833 260.068451,216.931015 258.400513,216.416718 
	C253.266663,216.616837 248.132828,216.816971 242.187592,217.008072 
	C240.842972,216.900574 239.498367,216.793060 237.944580,216.022736 
	C236.524002,215.481369 235.103424,214.940018 233.125397,214.339981 
	C232.752380,214.320236 232.379349,214.300491 231.638260,213.662460 
	C228.865097,213.064499 226.091919,212.466537 222.609085,211.755798 
	C220.424637,210.971146 218.240189,210.186478 215.481735,209.118607 
	C215.069794,209.010773 214.657852,208.902924 214.137070,208.096802 
	C209.474380,203.925980 204.837845,199.725372 200.137711,195.597168 
	C197.865921,193.601807 195.474640,191.742508 192.907761,189.222153 
	C192.135208,188.208206 191.362671,187.194244 190.794952,185.423843 
	C190.649857,184.778259 190.638199,184.062180 190.339920,183.497498 
	C184.405045,172.261917 180.932449,160.487228 180.270630,147.628525 
	C179.981659,142.014114 176.472900,138.357712 171.731918,138.358292 
	C163.239716,138.359329 154.747513,138.365189 146.255325,138.352982 
	C143.132004,138.348480 141.171631,139.643417 140.544861,143.174057 
	C140.544861,143.174057 140.236801,143.500916 139.636993,143.275925 
	C139.561691,144.157181 139.486389,145.038422 139.202362,146.722885 
	C139.203644,147.826569 139.204941,148.930267 138.680923,150.338303 
	C138.821228,151.220139 138.961517,152.101990 138.986969,153.745682 
	C138.940918,154.771484 138.894867,155.797287 138.181473,157.057144 
	C137.542603,158.156998 136.515915,159.194351 136.327011,160.366699 
	C134.978989,168.732315 131.772491,176.360397 127.295410,183.462967 
	C117.601471,198.841751 103.883644,209.158859 86.458023,213.940323 
	C79.084206,215.963638 71.203857,216.202881 63.530476,217.039780 
	C60.751671,217.342865 59.380463,218.081741 60.624096,221.916794 
	C60.670624,224.606689 60.717155,227.296570 60.427872,230.309311 
	C60.957417,230.618622 61.486961,230.927933 62.879662,231.367447 
	C64.912231,231.344284 66.944801,231.321121 69.667305,231.736679 
	C72.994682,231.744064 76.337692,231.956436 79.645248,231.704102 
	C83.318954,231.423828 85.636261,231.778336 85.466866,236.518387 
	C85.313660,240.805115 85.344566,243.990417 79.509766,243.415573 
	C74.394699,242.911667 69.184120,243.154327 64.026772,243.353302 
	C55.729221,243.673447 52.425720,247.188766 52.366219,255.474808 
	C52.320755,261.805695 52.002380,268.162567 52.448689,274.462280 
	C53.067226,283.193054 55.991570,285.161285 62.799080,285.056732 
	C86.119148,284.698700 109.448128,284.906219 132.773621,284.948730 
	C134.382278,284.951660 137.385452,285.322327 137.395111,285.602661 
	C137.660187,293.303619 137.620331,301.015045 137.631271,308.724731 
	C129.528732,312.158234 130.596786,320.815918 127.582962,327.037354 
	C124.192505,334.036224 122.363167,341.794861 119.898018,349.237366 
	C117.730423,355.781555 118.760269,364.117310 129.102219,363.821960 
	C148.746307,363.260895 168.427063,363.301697 188.074097,363.808746 
	C198.164383,364.069183 200.364059,357.762878 198.215759,350.444794 
	C195.463562,341.069550 192.357330,331.793091 189.188370,322.547882 
	C187.916718,318.837921 186.964157,314.309021 184.283615,311.955597 
	C180.119904,308.299896 180.644653,304.193756 180.589325,299.828949 
	C180.551315,296.830444 180.822800,293.807037 180.526718,290.837555 
	C180.062134,286.178070 181.944626,284.764679 186.526062,284.832428 
	C202.017517,285.061554 217.514435,284.919617 233.009277,284.919617 
	C260.500122,284.919647 287.991180,284.974213 315.481567,284.859955 
	C319.519775,284.843170 321.804230,285.628510 321.491394,290.343658 
	C321.161194,295.320190 321.454773,300.335999 321.384247,305.333374 
	C321.368530,306.449066 321.321503,308.244904 320.694794,308.565186 
	C314.974365,311.489044 314.882874,317.602386 312.896240,322.461670 
	C311.161560,326.704681 310.729889,331.480408 309.598785,336.521484 
	C309.567993,336.863647 309.537201,337.205841 309.020874,337.694855 
	C308.703979,337.815948 308.387085,337.937042 307.315643,338.136749 
	C305.925507,341.236115 304.304169,344.260193 303.258514,347.471710 
	C302.837372,348.765289 303.677521,350.469513 303.817749,352.618591 
	C303.745880,353.041504 303.674011,353.464417 303.021484,354.062836 
	C303.226410,355.077789 303.431335,356.092743 303.793182,357.732269 
	C303.849487,358.157898 303.905792,358.583557 303.487091,359.403198 
	C305.331696,360.561157 307.176300,361.719116 309.955658,362.881561 
	C332.309357,362.785400 354.663025,362.689209 377.126312,363.140594 
	C379.211823,361.777710 381.897491,360.842560 383.244110,358.953094 
	C385.339630,356.012756 381.256042,343.382294 377.556183,340.898804 
	C377.556183,340.898804 377.118439,340.962860 377.087677,340.186066 
	C376.978333,339.155640 376.868988,338.125214 377.381958,336.708496 
	C378.702454,333.757477 377.480865,332.293396 374.231415,331.134521 
	C374.063599,330.126312 373.895782,329.118134 374.359375,327.754150 
	C373.489563,325.493073 372.619781,323.231995 371.757446,320.405640 
	C371.707031,320.034180 371.656616,319.662720 371.821655,318.530853 
	C369.706360,314.925568 370.954590,308.434113 363.391235,309.097168 
	C363.391235,309.097168 363.003693,308.997742 363.129700,308.067535 
	C363.351349,300.643677 363.572968,293.219818 364.753784,285.881226 
	C389.386200,285.902679 414.018707,285.899658 438.651031,285.960419 
	C446.132812,285.978882 447.668060,286.615784 449.944550,276.765900 
	C451.446655,270.266449 450.565002,263.235016 450.948853,256.453033 
	C451.362244,249.149002 445.775726,241.453613 436.381622,242.006027 
	C431.239868,242.308365 426.060150,241.914993 420.908081,242.111267 
	C417.780151,242.230438 416.684967,240.977737 416.974609,238.016342 
	C417.160553,236.114868 417.178528,234.196976 417.264557,232.434692 
	C419.408356,232.066986 420.876770,231.815125 422.881561,231.617477 
	C423.242340,231.612793 423.603149,231.608093 424.448792,232.327942 
	C429.340912,232.510361 434.232666,232.761551 439.125671,232.789734 
	C439.749756,232.793304 440.380554,231.633118 441.000000,231.000000 
	C441.000000,231.000000 441.012054,231.008194 441.801605,230.861282 
	C443.338135,226.421677 444.252045,222.010101 440.873840,217.049164 
	C435.203857,217.111847 429.533844,217.174530 423.304993,217.372208 
	C422.944031,217.264496 422.583038,217.156784 422.067413,216.427902 
	C420.789917,215.617203 419.609406,214.520569 418.217072,214.048553 
	C413.752594,212.535065 408.898499,211.864075 404.760254,209.757202 
	C395.374298,204.978592 387.079529,198.591614 380.165588,190.527420 
	C379.612762,189.882614 378.583069,189.646713 377.638855,188.807236 
	C377.638855,188.807236 377.518707,188.388748 377.731903,187.674576 
	C376.840118,187.099060 375.948303,186.523529 374.996796,185.975494 
	C374.996796,185.975494 375.051941,185.933533 375.059906,185.155121 
	C374.086792,183.393417 373.113708,181.631729 372.082397,179.094452 
	C370.273438,175.219086 370.862793,170.070435 365.702393,167.123306 
	C365.670593,166.383194 365.638794,165.643066 366.241730,164.755783 
	C367.475494,161.095795 367.035065,157.975235 363.148773,155.018768 
	C363.030121,151.706390 362.911499,148.394028 363.395721,144.719421 
	C363.182343,140.246567 360.154480,137.843475 355.082489,138.914948 
	C346.715698,138.900665 338.348877,138.886398 329.501282,138.376678 
	C326.206360,137.626434 324.415009,138.902298 324.080872,142.958099 
	C323.865540,143.579941 323.650208,144.201782 322.743500,144.941833 
	C318.032684,149.101013 320.057983,154.128098 320.981537,159.740143 
	C321.121735,160.203003 321.261932,160.665863 321.168427,161.806976 
	C320.994232,162.501389 320.820038,163.195801 319.995148,164.039703 
	C317.739288,165.595352 315.638733,167.194229 318.252197,170.765884 
	C318.126770,171.178406 318.001373,171.590927 317.179688,172.058365 
	C315.456818,174.967041 313.598969,177.806519 312.059662,180.809311 
	C311.074768,182.730560 310.560333,184.892990 309.818787,187.567032 
	C309.443329,188.270554 309.067902,188.974091 308.052521,189.791718 
	C307.666199,190.502579 307.279907,191.213455 306.469543,192.056396 
	C306.469543,192.056396 306.037323,192.158493 305.708527,191.599625 
	C304.176331,193.461487 302.644135,195.323334 300.904999,197.420700 
	C300.904999,197.420700 300.605713,197.513992 299.822632,197.261566 
	C299.243866,198.232285 298.665100,199.203018 297.862823,200.404953 
	C297.862823,200.404953 297.550537,200.481674 296.794189,200.234787 
	C296.336792,200.939835 295.879425,201.644882 295.336487,202.380157 
	C295.336487,202.380157 295.274902,202.446793 294.534668,202.184708 
	C292.013824,204.109924 289.493011,206.035141 286.501923,208.400620 
	C285.668610,208.602814 284.835266,208.804993 283.611908,208.509125 
z"/>
<path fill="#9127CE" opacity="1.000000" stroke="none" 
	d="
M60.763680,229.986481 
	C60.717155,227.296570 60.670624,224.606689 61.029724,221.279343 
	C63.916103,220.111862 66.403725,219.096008 68.876488,219.130951 
	C84.459000,219.351212 98.036194,214.205673 110.548203,205.077637 
	C120.575066,197.762650 128.149124,188.466904 133.316193,177.524612 
	C136.316818,171.170181 137.079224,163.758835 138.848816,156.823090 
	C138.894867,155.797287 138.940918,154.771484 139.288544,153.196869 
	C139.462158,151.776672 139.334183,150.905319 139.206223,150.033951 
	C139.204941,148.930267 139.203644,147.826569 139.523468,146.157410 
	C139.975311,144.894913 140.106049,144.197922 140.236801,143.500916 
	C140.236801,143.500916 140.544861,143.174057 141.117218,143.097137 
	C143.999802,142.643631 146.301788,142.013199 148.621765,141.938034 
	C155.554916,141.713486 162.518768,142.024719 169.424911,141.511612 
	C174.748932,141.116028 177.665375,143.558884 177.038635,149.434860 
	C177.058716,151.567581 177.103409,153.273880 177.116974,155.376984 
	C179.877518,163.705017 182.475052,171.713272 185.573715,179.522690 
	C186.561935,182.013260 188.880371,183.976013 190.590134,186.180283 
	C191.362671,187.194244 192.135208,188.208206 192.952362,189.903076 
	C193.243469,195.195023 197.195328,196.653549 200.154938,199.288849 
	C200.784515,200.065460 201.393845,200.526749 202.137222,201.302368 
	C206.262817,204.009491 210.254364,206.402298 214.245911,208.795090 
	C214.657852,208.902924 215.069794,209.010773 215.888702,209.572647 
	C217.212769,213.980148 220.845032,212.711487 223.602722,213.719696 
	C224.270737,213.829788 224.651871,213.896896 225.073547,214.339447 
	C228.752701,215.566116 232.391327,216.417343 236.234955,217.255249 
	C236.439987,217.241928 236.845078,217.311890 237.075302,217.578476 
	C239.196228,217.933411 241.086929,218.021759 243.445831,218.113754 
	C248.945572,218.093048 253.977081,218.068680 259.237091,218.303772 
	C260.658630,218.299850 261.851715,218.036469 263.379333,217.747726 
	C264.377716,217.639084 265.041595,217.555801 266.057159,217.623749 
	C267.667877,216.940002 268.926910,216.104996 270.493835,215.226318 
	C271.210144,215.226898 271.618530,215.271118 272.266357,215.545654 
	C274.771271,214.532852 277.036774,213.289719 279.302277,212.046570 
	C279.640259,211.873947 279.978271,211.701340 280.484833,211.534668 
	C280.653381,211.540588 280.810638,211.794174 280.962341,212.016296 
	C282.462738,211.512955 283.811401,210.787476 285.522949,210.046387 
	C286.929657,209.360779 287.973480,208.690781 289.245178,207.762573 
	C291.407013,205.818512 293.340942,204.132645 295.274902,202.446777 
	C295.274902,202.446793 295.336487,202.380157 295.675720,202.320343 
	C296.526825,201.667572 297.038696,201.074631 297.550537,200.481689 
	C297.550537,200.481674 297.862823,200.404953 298.208649,200.356995 
	C298.554474,200.309052 299.042908,200.299805 299.216492,200.472275 
	C299.695953,200.110962 300.001862,199.577179 300.357239,198.787170 
	C300.473053,198.191986 300.539398,197.852982 300.605713,197.513992 
	C300.605713,197.513992 300.904999,197.420700 301.351501,197.288910 
	C303.211090,195.490906 304.624207,193.824692 306.037323,192.158478 
	C306.037323,192.158493 306.469543,192.056396 307.045410,192.000671 
	C307.978333,191.189163 308.335388,190.433395 308.692444,189.677612 
	C309.067902,188.974091 309.443329,188.270554 310.189331,187.222977 
	C312.419891,183.617218 314.279938,180.355515 316.464355,177.032013 
	C317.129639,176.256958 317.470490,175.543732 318.004181,174.628937 
	C318.089966,173.619415 317.982971,172.811432 317.875977,172.003464 
	C318.001373,171.590927 318.126770,171.178406 318.482422,170.478699 
	C318.712677,170.191528 319.114014,170.077560 319.443726,170.006226 
	C320.059937,169.193405 320.346466,168.451950 320.705750,167.327576 
	C320.734283,165.926514 320.690063,164.908356 320.645844,163.890213 
	C320.820038,163.195801 320.994232,162.501389 321.609985,161.354675 
	C322.565247,158.832458 323.078949,156.762543 323.619873,154.256073 
	C323.576355,150.820877 323.505615,147.822235 323.434875,144.823608 
	C323.650208,144.201782 323.865540,143.579941 324.474701,142.613312 
	C325.514099,142.103806 326.159668,141.939072 327.281464,141.842102 
	C333.825897,141.912750 339.896332,142.016525 345.961517,141.882889 
	C349.980469,141.794327 353.991913,141.365585 358.286133,141.133713 
	C358.990540,141.521774 359.415497,141.865265 359.870392,142.540710 
	C360.567139,143.604782 361.233978,144.336914 362.123108,145.119354 
	C362.345459,145.169678 362.792847,145.081650 362.792847,145.081650 
	C362.911499,148.394028 363.030121,151.706390 363.103058,155.782898 
	C363.013123,157.033508 362.968903,157.519958 362.673523,158.244827 
	C363.250977,160.677383 364.079529,162.871536 365.092041,165.064728 
	C365.276001,165.063751 365.606964,164.902954 365.606964,164.902954 
	C365.638794,165.643066 365.670593,166.383194 365.663086,167.708420 
	C365.596283,168.742981 365.568787,169.192413 365.411072,169.969727 
	C365.825653,170.884384 366.370514,171.471191 367.109192,172.350159 
	C368.228516,174.737869 369.153992,176.833420 370.041138,179.271805 
	C370.552582,180.468292 371.102448,181.321945 371.800873,182.469360 
	C372.621094,183.858459 373.292755,184.953781 373.947327,186.413055 
	C375.296448,188.510178 376.662689,190.243317 378.314636,192.156097 
	C382.728088,196.233902 386.855804,200.132050 391.029053,204.367126 
	C392.001129,205.170151 392.927704,205.636246 394.187256,206.170227 
	C396.345093,207.495117 398.169922,208.752151 400.034790,210.352386 
	C400.810089,211.047699 401.545349,211.399811 402.639893,211.792816 
	C404.319672,212.244003 405.640198,212.654251 406.983887,213.352081 
	C407.663391,213.803604 408.319733,213.967545 409.341492,214.162659 
	C411.801605,214.801437 413.896332,215.409012 416.044983,216.386017 
	C417.189819,217.041931 418.280731,217.328400 419.747314,217.631226 
	C420.822662,217.448059 421.522369,217.248566 422.222076,217.049072 
	C422.583038,217.156784 422.944031,217.264496 423.913879,217.547089 
	C425.319794,217.884964 426.116821,218.047974 427.039734,218.580582 
	C431.695038,219.338058 436.224457,219.725922 440.845123,220.556580 
	C440.961578,224.335648 440.986816,227.671921 441.012054,231.008194 
	C441.012054,231.008194 441.000000,231.000000 440.537659,230.990112 
	C435.415070,230.857590 430.754791,230.734955 425.978577,230.271683 
	C423.858887,229.292999 421.814087,228.046402 419.862366,228.178238 
	C417.656921,228.327209 413.899750,229.409195 413.673798,230.618973 
	C412.897125,234.777374 413.157593,239.188171 413.545868,243.455185 
	C413.622101,244.292740 416.032104,244.917923 417.809814,245.649109 
	C425.549255,245.671799 432.845459,245.625626 440.139801,245.721436 
	C445.397156,245.790497 446.968658,247.301544 447.039429,252.591019 
	C447.150299,260.879639 447.107605,269.171692 447.000275,277.460571 
	C446.982269,278.847351 446.308502,280.225616 445.721924,281.459167 
	C444.977722,281.839447 444.449310,282.368378 443.519287,283.009033 
	C440.651703,283.372345 438.186371,283.835175 435.719666,283.842743 
	C411.808441,283.915955 387.896973,283.912781 363.761078,283.693756 
	C362.676453,284.797455 361.132263,286.109589 361.073547,287.485168 
	C360.806274,293.747711 360.874146,300.030396 361.048340,306.299530 
	C361.073822,307.216339 362.321533,308.099182 363.003693,308.997742 
	C363.003693,308.997742 363.391235,309.097168 363.766235,309.410706 
	C365.585144,312.045624 367.029053,314.367004 368.347412,317.029907 
	C369.020355,318.583099 369.818848,319.794739 370.713074,321.330017 
	C370.878906,322.097656 370.949005,322.541687 370.972351,323.376160 
	C371.542023,325.225861 372.158417,326.685120 373.014984,328.187622 
	C373.255157,328.230927 373.727966,328.109924 373.727966,328.109924 
	C373.895782,329.118134 374.063599,330.126312 374.217987,331.823822 
	C374.251556,333.254517 374.298553,333.995880 374.254395,335.070312 
	C374.739624,335.962280 375.316010,336.521271 376.108398,337.132935 
	C376.324402,337.185669 376.759644,337.094788 376.759644,337.094788 
	C376.868988,338.125214 376.978333,339.155640 376.828339,340.753235 
	C377.329224,342.914856 378.089447,344.509338 378.880249,346.515137 
	C379.326508,349.284943 380.149994,351.663544 380.035156,353.995911 
	C379.934448,356.042084 378.781311,358.036438 377.619049,360.030945 
	C353.418518,360.011932 329.691956,360.015625 305.691620,359.942566 
	C304.932587,359.580261 304.447357,359.294739 303.962097,359.009186 
	C303.905792,358.583557 303.849487,358.157898 303.819214,357.022858 
	C303.764191,355.504730 303.683167,354.696045 303.602112,353.887329 
	C303.674011,353.464417 303.745880,353.041504 304.220856,352.167175 
	C305.999054,347.809937 307.374146,343.904114 309.080688,339.821167 
	C309.443573,338.945404 309.475006,338.246704 309.506409,337.548004 
	C309.537201,337.205841 309.567993,336.863647 309.992859,336.104340 
	C312.269897,330.617096 313.877563,325.420502 316.129486,320.519989 
	C317.712067,317.076050 320.237579,314.074890 322.212646,310.798035 
	C323.248566,309.079315 324.652191,307.233093 324.767944,305.374603 
	C325.108978,299.899841 324.697968,294.381256 324.953735,288.897186 
	C325.141144,284.879028 323.193970,283.032898 319.619751,282.441223 
	C317.830353,282.144989 315.985779,282.083954 314.166138,282.083160 
	C272.030212,282.064484 229.894272,282.067627 187.758331,282.073029 
	C186.260849,282.073212 184.740784,281.983856 183.270187,282.200592 
	C179.142441,282.808868 176.685333,284.670654 177.027374,289.475189 
	C177.393051,294.612061 176.810379,299.821014 177.253540,304.945618 
	C177.437057,307.067657 179.145859,309.088562 180.275253,311.091034 
	C182.109222,314.342773 184.631714,317.338715 185.812790,320.801086 
	C189.199585,330.729614 191.782562,340.933685 195.214600,350.844879 
	C197.881897,358.547638 196.826843,360.899414 188.707855,360.959991 
	C168.890091,361.107849 149.070038,361.081055 129.251846,360.964447 
	C122.587463,360.925232 120.640831,358.538757 122.446159,352.216705 
	C125.324768,342.136139 128.631607,332.175262 131.891327,322.207611 
	C132.898560,319.127655 133.554428,315.260376 135.759521,313.393524 
	C139.589600,310.150909 140.432556,306.629486 140.135956,302.084991 
	C139.865372,297.939026 140.087250,293.761475 140.076477,289.597870 
	C140.058609,282.693024 139.466843,282.074402 132.726639,282.071960 
	C109.243767,282.063416 85.760719,282.020813 62.278194,282.110138 
	C57.809696,282.127136 55.531853,280.908539 55.807194,275.817474 
	C56.202362,268.510864 55.888142,261.166901 55.912319,253.838989 
	C55.932537,247.713089 57.532040,246.053543 63.487984,246.018600 
	C70.149574,245.979523 76.831169,246.285599 83.460861,245.822662 
	C85.345596,245.691040 88.673706,243.304718 88.601334,242.119614 
	C88.318588,237.489273 91.451134,232.026855 86.135368,228.316010 
	C85.885468,228.141541 85.474434,228.058594 85.173920,228.116638 
	C79.771812,229.160217 74.375183,230.232132 68.977371,231.297958 
	C66.944801,231.321121 64.912231,231.344284 62.335381,231.010040 
	C61.448627,230.430573 61.106152,230.208527 60.763680,229.986481 
M231.583176,233.849533 
	C231.578262,236.498077 231.573349,239.146637 231.233109,242.551819 
	C231.837830,243.579544 232.210114,245.197906 233.083954,245.541763 
	C240.219330,248.349609 245.245239,244.909286 245.058823,237.333160 
	C245.010330,235.361893 244.631622,232.142929 243.513596,231.688354 
	C240.105667,230.302658 236.269470,229.940430 232.566452,229.416412 
	C232.414001,229.394836 231.923782,231.760162 231.583176,233.849533 
M270.800232,232.486603 
	C269.952606,231.335114 268.808350,229.073853 268.304535,229.208511 
	C264.438446,230.241852 259.964417,230.890747 257.124908,233.337082 
	C254.349777,235.727997 257.256226,244.974625 260.263824,245.441132 
	C262.869629,245.845306 265.628052,246.016525 268.189484,245.561493 
	C269.125610,245.395187 269.688782,243.129532 270.591492,241.075546 
	C270.533661,238.406876 270.475830,235.738205 270.800232,232.486603 
M131.660034,200.162827 
	C129.129333,203.569351 124.779053,206.793640 124.416168,210.417267 
	C123.411079,220.453979 123.974579,230.658905 124.165916,240.792664 
	C124.195671,242.368820 125.345261,245.133179 126.285866,245.273193 
	C130.331223,245.875366 134.741455,246.534332 138.488815,245.408539 
	C140.009979,244.951538 140.797531,240.007919 140.856735,237.084274 
	C141.109085,224.625397 141.077438,212.156570 140.868958,199.696060 
	C140.826965,197.186996 139.563721,194.698349 138.863525,192.200287 
	C136.953537,194.404388 135.040482,196.605865 133.145981,198.823212 
	C133.077194,198.903702 133.190796,199.140030 133.057770,199.716873 
	C132.897171,199.978180 132.675629,200.168579 131.660034,200.162827 
M165.946945,304.239960 
	C165.947144,281.578796 165.947464,258.917633 165.947525,236.256454 
	C165.947601,210.262772 165.979416,184.268951 165.877457,158.275665 
	C165.870453,156.492493 165.130173,153.342636 164.272141,153.174896 
	C160.962448,152.527847 157.353958,152.341583 154.107513,153.082260 
	C153.120377,153.307465 152.464600,157.068726 152.460373,159.212021 
	C152.368576,205.867188 152.390366,252.522568 152.390518,299.177917 
	C152.390518,301.344055 152.497787,303.516541 152.367630,305.674774 
	C152.191727,308.591614 153.268234,310.106750 156.358810,309.921753 
	C158.019165,309.822327 159.694046,309.830444 161.355728,309.917297 
	C164.750412,310.094727 166.368347,308.639984 165.946945,304.239960 
M336.052582,282.500000 
	C336.052887,289.830017 336.391937,297.180420 335.951538,304.483887 
	C335.565186,310.891388 339.719269,309.676697 343.457855,309.956726 
	C347.668365,310.272064 349.776520,309.433197 349.725220,304.358978 
	C349.470886,279.206329 349.609558,254.049713 349.609619,228.894501 
	C349.609680,205.405197 349.642426,181.915741 349.545990,158.426834 
	C349.538422,156.584442 348.901154,153.309875 348.091827,153.156708 
	C344.784760,152.530869 341.181580,152.365128 337.943054,153.122681 
	C336.907013,153.365036 336.135468,156.981171 336.130157,159.055939 
	C336.025909,199.870438 336.052612,240.685242 336.052582,282.500000 
M222.500000,256.982452 
	C209.837555,256.983063 197.175049,256.960693 184.512695,256.994263 
	C178.457382,257.010284 178.578125,257.313751 178.177963,264.785065 
	C177.906418,269.855621 179.940170,270.895752 184.532074,270.868042 
	C212.021881,270.701965 239.513214,270.786926 267.004028,270.786835 
	C283.998352,270.786774 300.992798,270.817139 317.986725,270.735657 
	C319.720123,270.727356 322.870117,270.232910 322.948975,269.641907 
	C323.422424,266.094177 323.587921,262.377319 322.931458,258.891296 
	C322.753510,257.946228 319.378937,257.070557 317.468323,257.063690 
	C286.145844,256.951111 254.822861,256.983002 222.500000,256.982452 
M176.105560,349.712952 
	C180.546097,350.031647 182.859192,348.752747 181.008408,343.745453 
	C179.121368,338.640137 177.189194,333.514099 175.871078,328.248383 
	C174.922623,324.459381 173.058517,323.050995 169.288559,323.140564 
	C162.481552,323.302307 155.662460,323.346680 148.859070,323.120087 
	C144.897659,322.988129 143.191605,325.051880 142.119980,328.380402 
	C140.499496,333.413788 138.843323,338.438293 137.063889,343.417084 
	C135.248260,348.497162 135.960556,349.688812 141.297211,349.703308 
	C152.593231,349.733978 163.889420,349.712677 176.105560,349.712952 
M139.376511,260.187531 
	C139.071182,256.926178 136.788239,256.947906 134.302032,256.953186 
	C113.827347,256.996826 93.352501,256.959076 72.877777,256.990387 
	C67.179924,256.999084 67.233643,257.372040 66.863365,264.555237 
	C66.614517,269.382812 68.214386,270.936340 73.043961,270.880859 
	C92.018066,270.662781 110.996162,270.791931 129.972778,270.792053 
	C139.806595,270.792114 139.806595,270.792023 139.376511,260.187531 
M416.498016,270.791992 
	C421.155029,270.789520 425.815491,270.885803 430.466949,270.723785 
	C431.843964,270.675812 434.297729,270.042236 434.376221,269.434143 
	C434.815887,266.027191 435.186829,262.432922 434.456390,259.153137 
	C434.210724,258.050049 430.669495,257.085754 428.626831,257.070190 
	C408.503113,256.917297 388.374176,257.189270 368.255096,256.848114 
	C362.265137,256.746521 362.518036,260.111084 362.334564,264.096954 
	C362.141754,268.286346 362.645142,271.006927 368.099426,270.900757 
	C383.893982,270.593292 399.698364,270.791748 416.498016,270.791992 
M309.909302,217.549713 
	C309.911987,225.047989 309.835480,232.547836 309.983582,240.043228 
	C310.013489,241.555405 310.720734,244.250900 311.412048,244.350845 
	C314.815125,244.842926 318.440704,245.165527 321.716400,244.394791 
	C322.800201,244.139771 323.602112,240.446655 323.630615,238.313431 
	C323.804260,225.318741 323.750702,212.320404 323.681030,199.323776 
	C323.671051,197.464798 323.163269,195.608505 322.671906,192.318085 
	C317.144623,200.871231 307.599823,205.485199 309.909302,217.549713 
M184.877197,199.610641 
	C183.202805,197.570969 181.528427,195.531311 179.495804,193.055252 
	C179.024994,194.528564 178.745544,194.999725 178.741898,195.473022 
	C178.624161,210.746460 178.214386,226.028015 178.593872,241.289825 
	C178.746979,247.447327 184.386108,244.359833 187.659821,244.942444 
	C190.841873,245.508728 192.127441,243.726105 192.097473,240.595551 
	C192.025833,233.116531 191.647980,225.603226 192.212479,218.165894 
	C192.766861,210.861938 191.208115,204.798706 184.877197,199.610641 
M99.878654,240.615967 
	C100.785080,242.075455 101.456848,244.562057 102.635216,244.831284 
	C111.725182,246.908066 113.768936,245.142181 113.771706,235.931519 
	C113.772652,232.783630 113.829391,229.634323 113.753006,226.488297 
	C113.695503,224.120163 113.466270,221.756195 113.309753,219.332672 
	C102.300484,220.917267 99.395744,224.100891 99.491188,233.779724 
	C99.510742,235.762070 99.728188,237.742447 99.878654,240.615967 
M297.598969,223.246399 
	C297.141876,219.191223 295.093536,218.944321 291.689941,220.334244 
	C285.579193,222.829727 282.636230,226.838089 283.884125,233.608673 
	C284.239136,235.534988 283.960236,237.581696 283.939606,239.572861 
	C283.909058,242.520203 283.806885,245.639175 288.159851,245.013229 
	C291.575317,244.522125 296.827728,247.360703 297.040710,240.480164 
	C297.209717,235.019638 297.416687,229.560287 297.598969,223.246399 
M218.061981,234.514145 
	C218.061646,232.847488 218.082306,231.180496 218.056793,229.514221 
	C217.995163,225.489868 211.152069,218.999863 207.273544,219.639236 
	C206.198822,219.816406 204.577530,221.526642 204.570511,222.542938 
	C204.525742,229.020615 204.766373,235.506973 205.172821,241.974136 
	C205.236496,242.987366 206.431885,244.428009 207.430267,244.803513 
	C214.226257,247.359589 218.037735,244.658386 218.061295,237.484222 
	C218.063477,236.817551 218.061890,236.150894 218.061981,234.514145 
M320.812073,338.485138 
	C320.442719,340.427063 320.275452,342.435059 319.666107,344.298492 
	C317.847900,349.858521 318.495026,350.975708 324.203003,350.998230 
	C336.688263,351.047546 349.173889,351.038300 361.659241,351.002319 
	C366.500092,350.988373 367.958862,349.470367 366.731659,345.024963 
	C364.910126,338.426727 363.024170,331.789520 360.352295,325.515259 
	C359.481415,323.470245 356.154663,321.441040 353.802063,321.251068 
	C346.855591,320.690125 339.829926,320.902130 332.844757,321.118408 
	C329.456909,321.223267 326.575531,322.204834 325.564392,326.411499 
	C324.624603,330.321289 322.667999,333.986664 320.812073,338.485138 
M361.036743,201.594254 
	C361.036743,212.743515 361.035889,223.892761 361.036957,235.042023 
	C361.037994,246.221832 361.633514,246.712860 372.822662,246.060867 
	C376.335388,245.856155 377.973755,244.317963 377.945190,240.803513 
	C377.895172,234.646896 377.528870,228.456284 378.030426,222.340225 
	C378.795197,213.014053 377.742767,204.620651 369.447418,198.701309 
	C369.201111,198.525574 369.163788,198.074478 368.929230,197.861923 
	C366.875183,196.000656 364.798370,194.164474 362.728302,192.320847 
	C362.164490,195.091141 361.600647,197.861435 361.036743,201.594254 
M388.056061,238.267120 
	C388.153320,245.158142 388.686981,245.700653 395.410278,245.742691 
	C401.902008,245.783279 402.547058,245.176514 402.712402,238.765015 
	C402.755310,237.101074 402.721375,235.435150 402.721283,233.770126 
	C402.720673,223.948090 402.303131,223.437286 393.309692,219.924423 
	C389.733978,218.527740 387.931641,219.153625 388.033264,223.338409 
	C388.146423,227.997681 388.056824,232.661865 388.056061,238.267120 
z"/>
<path fill="#B670DF" opacity="1.000000" stroke="none" 
	d="
M69.322342,231.517319 
	C74.375183,230.232132 79.771812,229.160217 85.173920,228.116638 
	C85.474434,228.058594 85.885468,228.141541 86.135368,228.316010 
	C91.451134,232.026855 88.318588,237.489273 88.601334,242.119614 
	C88.673706,243.304718 85.345596,245.691040 83.460861,245.822662 
	C76.831169,246.285599 70.149574,245.979523 63.487984,246.018600 
	C57.532040,246.053543 55.932537,247.713089 55.912319,253.838989 
	C55.888142,261.166901 56.202362,268.510864 55.807194,275.817474 
	C55.531853,280.908539 57.809696,282.127136 62.278194,282.110138 
	C85.760719,282.020813 109.243767,282.063416 132.726639,282.071960 
	C139.466843,282.074402 140.058609,282.693024 140.076477,289.597870 
	C140.087250,293.761475 139.865372,297.939026 140.135956,302.084991 
	C140.432556,306.629486 139.589600,310.150909 135.759521,313.393524 
	C133.554428,315.260376 132.898560,319.127655 131.891327,322.207611 
	C128.631607,332.175262 125.324768,342.136139 122.446159,352.216705 
	C120.640831,358.538757 122.587463,360.925232 129.251846,360.964447 
	C149.070038,361.081055 168.890091,361.107849 188.707855,360.959991 
	C196.826843,360.899414 197.881897,358.547638 195.214600,350.844879 
	C191.782562,340.933685 189.199585,330.729614 185.812790,320.801086 
	C184.631714,317.338715 182.109222,314.342773 180.275253,311.091034 
	C179.145859,309.088562 177.437057,307.067657 177.253540,304.945618 
	C176.810379,299.821014 177.393051,294.612061 177.027374,289.475189 
	C176.685333,284.670654 179.142441,282.808868 183.270187,282.200592 
	C184.740784,281.983856 186.260849,282.073212 187.758331,282.073029 
	C229.894272,282.067627 272.030212,282.064484 314.166138,282.083160 
	C315.985779,282.083954 317.830353,282.144989 319.619751,282.441223 
	C323.193970,283.032898 325.141144,284.879028 324.953735,288.897186 
	C324.697968,294.381256 325.108978,299.899841 324.767944,305.374603 
	C324.652191,307.233093 323.248566,309.079315 322.212646,310.798035 
	C320.237579,314.074890 317.712067,317.076050 316.129486,320.519989 
	C313.877563,325.420502 312.269897,330.617096 310.054749,335.854004 
	C310.729889,331.480408 311.161560,326.704681 312.896240,322.461670 
	C314.882874,317.602386 314.974365,311.489044 320.694794,308.565186 
	C321.321503,308.244904 321.368530,306.449066 321.384247,305.333374 
	C321.454773,300.335999 321.161194,295.320190 321.491394,290.343658 
	C321.804230,285.628510 319.519775,284.843170 315.481567,284.859955 
	C287.991180,284.974213 260.500122,284.919647 233.009277,284.919617 
	C217.514435,284.919617 202.017517,285.061554 186.526062,284.832428 
	C181.944626,284.764679 180.062134,286.178070 180.526718,290.837555 
	C180.822800,293.807037 180.551315,296.830444 180.589325,299.828949 
	C180.644653,304.193756 180.119904,308.299896 184.283615,311.955597 
	C186.964157,314.309021 187.916718,318.837921 189.188370,322.547882 
	C192.357330,331.793091 195.463562,341.069550 198.215759,350.444794 
	C200.364059,357.762878 198.164383,364.069183 188.074097,363.808746 
	C168.427063,363.301697 148.746307,363.260895 129.102219,363.821960 
	C118.760269,364.117310 117.730423,355.781555 119.898018,349.237366 
	C122.363167,341.794861 124.192505,334.036224 127.582962,327.037354 
	C130.596786,320.815918 129.528732,312.158234 137.631271,308.724731 
	C137.620331,301.015045 137.660187,293.303619 137.395111,285.602661 
	C137.385452,285.322327 134.382278,284.951660 132.773621,284.948730 
	C109.448128,284.906219 86.119148,284.698700 62.799080,285.056732 
	C55.991570,285.161285 53.067226,283.193054 52.448689,274.462280 
	C52.002380,268.162567 52.320755,261.805695 52.366219,255.474808 
	C52.425720,247.188766 55.729221,243.673447 64.026772,243.353302 
	C69.184120,243.154327 74.394699,242.911667 79.509766,243.415573 
	C85.344566,243.990417 85.313660,240.805115 85.466866,236.518387 
	C85.636261,231.778336 83.318954,231.423828 79.645248,231.704102 
	C76.337692,231.956436 72.994682,231.744064 69.322342,231.517319 
z"/>
<path fill="#E1C4F2" opacity="1.000000" stroke="none" 
	d="
M363.985596,283.931427 
	C387.896973,283.912781 411.808441,283.915955 435.719666,283.842743 
	C438.186371,283.835175 440.651703,283.372345 443.858704,283.023682 
	C445.045715,282.487000 445.491730,282.047394 445.937744,281.607819 
	C446.308502,280.225616 446.982269,278.847351 447.000275,277.460571 
	C447.107605,269.171692 447.150299,260.879639 447.039429,252.591019 
	C446.968658,247.301544 445.397156,245.790497 440.139801,245.721436 
	C432.845459,245.625626 425.549255,245.671799 417.653809,245.315094 
	C416.398407,241.484756 415.250305,238.002640 415.207062,234.506821 
	C415.147125,229.663574 417.842346,228.709808 422.345215,231.563248 
	C420.876770,231.815125 419.408356,232.066986 417.264557,232.434692 
	C417.178528,234.196976 417.160553,236.114868 416.974609,238.016342 
	C416.684967,240.977737 417.780151,242.230438 420.908081,242.111267 
	C426.060150,241.914993 431.239868,242.308365 436.381622,242.006027 
	C445.775726,241.453613 451.362244,249.149002 450.948853,256.453033 
	C450.565002,263.235016 451.446655,270.266449 449.944550,276.765900 
	C447.668060,286.615784 446.132812,285.978882 438.651031,285.960419 
	C414.018707,285.899658 389.386200,285.902679 364.309937,285.529175 
	C363.905945,284.761902 363.945770,284.346649 363.985596,283.931427 
z"/>
<path fill="#B670DF" opacity="1.000000" stroke="none" 
	d="
M138.515137,156.940125 
	C137.079224,163.758835 136.316818,171.170181 133.316193,177.524612 
	C128.149124,188.466904 120.575066,197.762650 110.548203,205.077637 
	C98.036194,214.205673 84.459000,219.351212 68.876488,219.130951 
	C66.403725,219.096008 63.916103,220.111862 61.076866,220.833252 
	C59.380463,218.081741 60.751671,217.342865 63.530476,217.039780 
	C71.203857,216.202881 79.084206,215.963638 86.458023,213.940323 
	C103.883644,209.158859 117.601471,198.841751 127.295410,183.462967 
	C131.772491,176.360397 134.978989,168.732315 136.327011,160.366699 
	C136.515915,159.194351 137.542603,158.156998 138.515137,156.940125 
z"/>
<path fill="#B670DF" opacity="1.000000" stroke="none" 
	d="
M190.692535,185.802063 
	C188.880371,183.976013 186.561935,182.013260 185.573715,179.522690 
	C182.475052,171.713272 179.877518,163.705017 177.467682,155.296997 
	C179.326309,152.647720 180.377518,150.532791 177.063217,149.008453 
	C177.665375,143.558884 174.748932,141.116028 169.424911,141.511612 
	C162.518768,142.024719 155.554916,141.713486 148.621765,141.938034 
	C146.301788,142.013199 143.999802,142.643631 141.313354,142.987732 
	C141.171631,139.643417 143.132004,138.348480 146.255325,138.352982 
	C154.747513,138.365189 163.239716,138.359329 171.731918,138.358292 
	C176.472900,138.357712 179.981659,142.014114 180.270630,147.628525 
	C180.932449,160.487228 184.405045,172.261917 190.339920,183.497498 
	C190.638199,184.062180 190.649857,184.778259 190.692535,185.802063 
z"/>
<path fill="#A249D7" opacity="1.000000" stroke="none" 
	d="
M305.965424,360.019348 
	C329.691956,360.015625 353.418518,360.011932 377.470276,360.344788 
	C377.535889,361.318573 377.276306,361.955811 377.016724,362.593018 
	C354.663025,362.689209 332.309357,362.785400 309.346924,362.553558 
	C308.603821,362.030304 308.469421,361.835052 308.376038,361.636475 
	C308.417023,361.633148 308.404510,361.764008 308.086243,361.561951 
	C307.167114,360.913025 306.566254,360.466187 305.965424,360.019348 
z"/>
<path fill="#E1C4F2" opacity="1.000000" stroke="none" 
	d="
M399.994751,210.009171 
	C398.169922,208.752151 396.345093,207.495117 394.104126,205.854706 
	C392.786530,204.990936 391.885010,204.510559 390.983521,204.030182 
	C386.855804,200.132050 382.728088,196.233902 378.306824,191.808426 
	C377.933868,190.594330 377.854431,189.907562 377.774963,189.220795 
	C378.583069,189.646713 379.612762,189.882614 380.165588,190.527420 
	C387.079529,198.591614 395.374298,204.978592 404.760254,209.757202 
	C408.898499,211.864075 413.752594,212.535065 418.217072,214.048553 
	C419.609406,214.520569 420.789917,215.617203 422.144745,216.738495 
	C421.522369,217.248566 420.822662,217.448059 419.583374,217.340118 
	C418.026184,216.693985 417.008636,216.355286 415.991058,216.016586 
	C413.896332,215.409012 411.801605,214.801437 409.209442,213.873718 
	C408.128235,213.390564 407.544495,213.227539 406.960724,213.064514 
	C405.640198,212.654251 404.319672,212.244003 402.527100,211.498688 
	C401.368286,210.778809 400.681519,210.393982 399.994751,210.009171 
z"/>
<path fill="#B369DD" opacity="1.000000" stroke="none" 
	d="
M358.006714,141.089142 
	C353.991913,141.365585 349.980469,141.794327 345.961517,141.882889 
	C339.896332,142.016525 333.825897,141.912750 327.378845,141.534821 
	C327.994049,140.397217 328.988068,139.634674 329.982086,138.872131 
	C338.348877,138.886398 346.715698,138.900665 355.694824,139.161774 
	C356.873688,139.968781 357.440216,140.528961 358.006714,141.089142 
z"/>
<path fill="#B670DF" opacity="1.000000" stroke="none" 
	d="
M214.191498,208.445953 
	C210.254364,206.402298 206.262817,204.009491 202.097260,200.992828 
	C201.327072,199.903809 200.730881,199.438660 200.134689,198.973511 
	C197.195328,196.653549 193.243469,195.195023 193.067200,190.202805 
	C195.474640,191.742508 197.865921,193.601807 200.137711,195.597168 
	C204.837845,199.725372 209.474380,203.925980 214.191498,208.445953 
z"/>
<path fill="#E1C4F2" opacity="1.000000" stroke="none" 
	d="
M377.071533,362.866821 
	C377.276306,361.955811 377.535889,361.318573 377.944275,360.367493 
	C378.781311,358.036438 379.934448,356.042084 380.035156,353.995911 
	C380.149994,351.663544 379.326508,349.284943 378.919006,346.140198 
	C378.612671,343.906769 378.298187,342.459595 377.983704,341.012390 
	C381.256042,343.382294 385.339630,356.012756 383.244110,358.953094 
	C381.897491,360.842560 379.211823,361.777710 377.071533,362.866821 
z"/>
<path fill="#AC5CDA" opacity="1.000000" stroke="none" 
	d="
M422.613403,231.590363 
	C417.842346,228.709808 415.147125,229.663574 415.207062,234.506821 
	C415.250305,238.002640 416.398407,241.484756 417.209778,245.307022 
	C416.032104,244.917923 413.622101,244.292740 413.545868,243.455185 
	C413.157593,239.188171 412.897125,234.777374 413.673798,230.618973 
	C413.899750,229.409195 417.656921,228.327209 419.862366,228.178238 
	C421.814087,228.046402 423.858887,229.292999 425.709656,230.407410 
	C425.025757,231.123672 424.494843,231.363541 423.963928,231.603394 
	C423.603149,231.608093 423.242340,231.612793 422.613403,231.590363 
z"/>
<path fill="#B56EDE" opacity="1.000000" stroke="none" 
	d="
M363.761078,283.693756 
	C363.945770,284.346649 363.905945,284.761902 363.830353,285.486542 
	C363.572968,293.219818 363.351349,300.643677 363.066711,308.532654 
	C362.321533,308.099182 361.073822,307.216339 361.048340,306.299530 
	C360.874146,300.030396 360.806274,293.747711 361.073547,287.485168 
	C361.132263,286.109589 362.676453,284.797455 363.761078,283.693756 
z"/>
<path fill="#E1C4F2" opacity="1.000000" stroke="none" 
	d="
M323.089172,144.882721 
	C323.505615,147.822235 323.576355,150.820877 323.330688,154.413162 
	C322.319977,156.340134 321.625641,157.673447 320.931305,159.006760 
	C320.057983,154.128098 318.032684,149.101013 323.089172,144.882721 
z"/>
<path fill="#E1C4F2" opacity="1.000000" stroke="none" 
	d="
M317.527832,172.030914 
	C317.982971,172.811432 318.089966,173.619415 317.697510,174.715988 
	C316.845367,175.701004 316.492645,176.397400 316.139954,177.093811 
	C314.279938,180.355515 312.419891,183.617218 310.197418,186.913116 
	C310.560333,184.892990 311.074768,182.730560 312.059662,180.809311 
	C313.598969,177.806519 315.456818,174.967041 317.527832,172.030914 
z"/>
<path fill="#E1C4F2" opacity="1.000000" stroke="none" 
	d="
M308.749237,339.998260 
	C307.374146,343.904114 305.999054,347.809937 304.283813,351.851318 
	C303.677521,350.469513 302.837372,348.765289 303.258514,347.471710 
	C304.304169,344.260193 305.925507,341.236115 307.717651,338.366211 
	C308.329498,339.063202 308.539368,339.530731 308.749237,339.998260 
z"/>
<path fill="#E1C4F2" opacity="1.000000" stroke="none" 
	d="
M424.206360,231.965668 
	C424.494843,231.363541 425.025757,231.123672 425.825592,230.748077 
	C430.754791,230.734955 435.415070,230.857590 440.541779,230.996140 
	C440.380554,231.633118 439.749756,232.793304 439.125671,232.789734 
	C434.232666,232.761551 429.340912,232.510361 424.206360,231.965668 
z"/>
<path fill="#E1C4F2" opacity="1.000000" stroke="none" 
	d="
M426.913879,218.210968 
	C426.116821,218.047974 425.319794,217.884964 424.193298,217.479584 
	C429.533844,217.174530 435.203857,217.111847 440.950989,217.508728 
	C441.028168,217.968307 440.844604,218.154999 440.396851,218.096436 
	C435.604034,218.095581 431.258972,218.153275 426.913879,218.210968 
z"/>
<path fill="#E1C4F2" opacity="1.000000" stroke="none" 
	d="
M265.705444,217.472504 
	C265.041595,217.555801 264.377716,217.639084 263.382263,217.464447 
	C263.031128,217.017563 263.011597,216.828598 262.992035,216.639648 
	C263.521484,215.877579 263.907471,214.643341 264.604156,214.431595 
	C268.542755,213.234573 272.555878,212.282730 276.770203,211.651703 
	C275.340149,213.142456 273.683533,214.228897 272.026917,215.315338 
	C271.618530,215.271118 271.210144,215.226898 270.150085,215.151550 
	C268.234131,215.904449 266.969788,216.688477 265.705444,217.472504 
z"/>
<path fill="#E1C4F2" opacity="1.000000" stroke="none" 
	d="
M259.008606,218.044327 
	C253.977081,218.068680 248.945572,218.093048 243.455200,217.840393 
	C242.997223,217.381287 242.998108,217.199188 242.998978,217.017105 
	C248.132828,216.816971 253.266663,216.616837 258.698486,216.966797 
	C259.000458,217.692688 259.004517,217.868500 259.008606,218.044327 
z"/>
<path fill="#E1C4F2" opacity="1.000000" stroke="none" 
	d="
M370.079498,178.928955 
	C369.153992,176.833420 368.228516,174.737869 367.135559,172.044281 
	C366.492523,170.844757 366.016907,170.243301 365.541290,169.641861 
	C365.568787,169.192413 365.596283,168.742981 365.848816,168.035355 
	C370.862793,170.070435 370.273438,175.219086 372.019592,179.560471 
	C371.956818,180.026489 371.771942,180.177261 371.573608,179.999084 
	C370.943359,179.523575 370.511414,179.226273 370.079498,178.928955 
z"/>
<path fill="#B670DF" opacity="1.000000" stroke="none" 
	d="
M236.029938,217.268585 
	C232.391327,216.417343 228.752701,215.566116 225.455261,214.312561 
	C227.866409,214.033722 229.936371,214.157227 232.006332,214.280731 
	C232.379349,214.300491 232.752380,214.320236 233.530136,214.650375 
	C234.633224,215.730042 235.331589,216.499313 236.029938,217.268585 
z"/>
<path fill="#E1C4F2" opacity="1.000000" stroke="none" 
	d="
M441.406830,230.934738 
	C440.986816,227.671921 440.961578,224.335648 440.929626,220.235291 
	C440.896790,219.032486 440.870697,218.593735 440.844604,218.154999 
	C440.844604,218.154999 441.028168,217.968307 441.120361,217.872406 
	C444.252045,222.010101 443.338135,226.421677 441.406830,230.934738 
z"/>
<path fill="#E1C4F2" opacity="1.000000" stroke="none" 
	d="
M368.472961,316.688416 
	C367.029053,314.367004 365.585144,312.045624 363.963348,309.444763 
	C370.954590,308.434113 369.706360,314.925568 371.448456,318.786560 
	C370.207825,318.257629 369.340393,317.473022 368.472961,316.688416 
z"/>
<path fill="#E1C4F2" opacity="1.000000" stroke="none" 
	d="
M294.904785,202.315735 
	C293.340942,204.132645 291.407013,205.818512 288.904510,207.739487 
	C287.881348,207.969864 287.426788,207.965118 286.972198,207.960358 
	C289.493011,206.035141 292.013824,204.109924 294.904785,202.315735 
z"/>
<path fill="#E1C4F2" opacity="1.000000" stroke="none" 
	d="
M358.286133,141.133698 
	C357.440216,140.528961 356.873688,139.968781 356.164062,139.137482 
	C360.154480,137.843475 363.182343,140.246567 363.094299,144.900543 
	C362.792847,145.081650 362.345459,145.169678 362.153961,144.786850 
	C361.255127,143.672256 360.547791,142.940506 359.840454,142.208755 
	C359.415497,141.865265 358.990540,141.521774 358.286133,141.133698 
z"/>
<path fill="#E1C4F2" opacity="1.000000" stroke="none" 
	d="
M231.822296,213.971588 
	C229.936371,214.157227 227.866409,214.033722 225.414719,213.937103 
	C224.651871,213.896896 224.270737,213.829788 223.565155,213.421844 
	C223.266708,212.676849 223.292725,212.272720 223.318756,211.868576 
	C226.091919,212.466537 228.865097,213.064499 231.822296,213.971588 
z"/>
<path fill="#B670DF" opacity="1.000000" stroke="none" 
	d="
M222.963928,211.812195 
	C223.292725,212.272720 223.266708,212.676849 223.278259,213.378845 
	C220.845032,212.711487 217.212769,213.980148 216.175690,209.714264 
	C218.240189,210.186478 220.424637,210.971146 222.963928,211.812195 
z"/>
<path fill="#E1C4F2" opacity="1.000000" stroke="none" 
	d="
M362.924683,158.006424 
	C362.968903,157.519958 363.013123,157.033508 363.221069,156.217957 
	C367.035065,157.975235 367.475494,161.095795 365.924347,164.829376 
	C365.606964,164.902954 365.276001,165.063751 365.141602,164.677460 
	C364.313049,162.196259 363.618866,160.101349 362.924683,158.006424 
z"/>
<path fill="#B874E0" opacity="1.000000" stroke="none" 
	d="
M272.266357,215.545670 
	C273.683533,214.228897 275.340149,213.142456 277.154510,211.776871 
	C277.790497,211.518509 278.268738,211.539291 279.024628,211.803345 
	C277.036774,213.289719 274.771271,214.532852 272.266357,215.545670 
z"/>
<path fill="#E1C4F2" opacity="1.000000" stroke="none" 
	d="
M319.114014,170.077545 
	C319.114014,170.077560 318.712677,170.191528 318.507996,170.155334 
	C315.638733,167.194229 317.739288,165.595352 320.320496,163.964966 
	C320.690063,164.908356 320.734283,165.926514 320.426727,167.459045 
	C319.754639,168.674820 319.434326,169.376190 319.114014,170.077545 
z"/>
<path fill="#E1C4F2" opacity="1.000000" stroke="none" 
	d="
M305.872925,191.879059 
	C304.624207,193.824692 303.211090,195.490906 301.454956,197.171143 
	C302.644135,195.323334 304.176331,193.461487 305.872925,191.879059 
z"/>
<path fill="#E1C4F2" opacity="1.000000" stroke="none" 
	d="
M329.741699,138.624405 
	C328.988068,139.634674 327.994049,140.397217 326.902649,141.467041 
	C326.159668,141.939072 325.514099,142.103806 324.536255,142.288147 
	C324.415009,138.902298 326.206360,137.626434 329.741699,138.624405 
z"/>
<path fill="#E1C4F2" opacity="1.000000" stroke="none" 
	d="
M377.070801,336.901642 
	C376.759644,337.094788 376.324402,337.185669 376.136475,336.816284 
	C375.414215,335.877045 374.879883,335.307159 374.345551,334.737274 
	C374.298553,333.995880 374.251556,333.254517 374.369049,332.175903 
	C377.480865,332.293396 378.702454,333.757477 377.070801,336.901642 
z"/>
<path fill="#E1C4F2" opacity="1.000000" stroke="none" 
	d="
M374.043671,327.932037 
	C373.727966,328.109924 373.255157,328.230927 373.069122,327.829651 
	C372.261749,325.947479 371.640411,324.466583 371.019073,322.985687 
	C370.949005,322.541687 370.878906,322.097656 370.996887,321.316772 
	C371.373291,320.976898 371.561646,320.973907 371.750000,320.970917 
	C372.619781,323.231995 373.489563,325.493073 374.043671,327.932037 
z"/>
<path fill="#B369DD" opacity="1.000000" stroke="none" 
	d="
M377.706909,189.014008 
	C377.854431,189.907562 377.933868,190.594330 378.021118,191.628769 
	C376.662689,190.243317 375.296448,188.510178 374.219177,186.382767 
	C374.689392,185.970169 374.870667,185.951859 375.051941,185.933533 
	C375.051941,185.933533 374.996796,185.975494 375.102173,186.260712 
	C375.977966,187.160187 376.748322,187.774475 377.518707,188.388748 
	C377.518707,188.388748 377.638855,188.807236 377.706909,189.014008 
z"/>
<path fill="#E1C4F2" opacity="1.000000" stroke="none" 
	d="
M308.335052,361.639771 
	C308.469421,361.835052 308.603821,362.030304 308.879547,362.551331 
	C307.176300,361.719116 305.331696,360.561157 303.724609,359.206177 
	C304.447357,359.294739 304.932587,359.580261 305.691620,359.942566 
	C306.566254,360.466187 307.167114,360.913025 308.065460,361.547180 
	C308.362976,361.734467 308.335052,361.639771 308.335052,361.639771 
z"/>
<path fill="#E1C4F2" opacity="1.000000" stroke="none" 
	d="
M375.055908,185.544327 
	C374.870667,185.951859 374.689392,185.970169 374.236267,186.018799 
	C373.292755,184.953781 372.621094,183.858459 371.894775,182.142731 
	C371.817383,181.073959 371.794647,180.625610 371.771942,180.177261 
	C371.771942,180.177261 371.956818,180.026489 372.048706,179.948257 
	C373.113708,181.631729 374.086792,183.393417 375.055908,185.544327 
z"/>
<path fill="#B369DD" opacity="1.000000" stroke="none" 
	d="
M320.956421,159.373444 
	C321.625641,157.673447 322.319977,156.340134 323.303467,154.849731 
	C323.078949,156.762543 322.565247,158.832458 321.726868,161.015549 
	C321.261932,160.665863 321.121735,160.203003 320.956421,159.373444 
z"/>
<path fill="#B874E0" opacity="1.000000" stroke="none" 
	d="
M242.593292,217.012589 
	C242.998108,217.199188 242.997223,217.381287 242.986984,217.836731 
	C241.086929,218.021759 239.196228,217.933411 237.399933,217.415329 
	C237.714157,216.885574 237.933960,216.785568 238.153748,216.685562 
	C239.498367,216.793060 240.842972,216.900574 242.593292,217.012589 
z"/>
<path fill="#B56EDE" opacity="1.000000" stroke="none" 
	d="
M371.753723,320.688293 
	C371.561646,320.973907 371.373291,320.976898 370.901123,320.993164 
	C369.818848,319.794739 369.020355,318.583099 368.347412,317.029907 
	C369.340393,317.473022 370.207825,318.257629 371.340729,319.166748 
	C371.656616,319.662720 371.707031,320.034180 371.753723,320.688293 
z"/>
<path fill="#B56EDE" opacity="1.000000" stroke="none" 
	d="
M377.769958,340.955597 
	C378.298187,342.459595 378.612671,343.906769 378.888428,345.728882 
	C378.089447,344.509338 377.329224,342.914856 376.843719,341.141632 
	C377.118439,340.962860 377.556183,340.898804 377.769958,340.955597 
z"/>
<path fill="#E1C4F2" opacity="1.000000" stroke="none" 
	d="
M238.049164,216.354156 
	C237.933960,216.785568 237.714157,216.885574 237.169708,217.148743 
	C236.845078,217.311890 236.439987,217.241928 236.234955,217.255249 
	C235.331589,216.499313 234.633224,215.730042 233.808868,214.679718 
	C235.103424,214.940018 236.524002,215.481369 238.049164,216.354156 
z"/>
<path fill="#B874E0" opacity="1.000000" stroke="none" 
	d="
M259.237091,218.303772 
	C259.004517,217.868500 259.000458,217.692688 258.997986,217.253021 
	C260.068451,216.931015 261.137299,216.872833 262.599121,216.727158 
	C263.011597,216.828598 263.031128,217.017563 263.047729,217.489807 
	C261.851715,218.036469 260.658630,218.299850 259.237091,218.303772 
z"/>
<path fill="#B670DF" opacity="1.000000" stroke="none" 
	d="
M286.737061,208.180496 
	C287.426788,207.965118 287.881348,207.969864 288.676636,207.997696 
	C287.973480,208.690781 286.929657,209.360779 285.233826,210.024750 
	C284.389435,210.012802 284.197021,210.006851 284.016907,209.752441 
	C284.029266,209.503967 284.001953,209.007172 284.001953,209.007172 
	C284.835266,208.804993 285.668610,208.602814 286.737061,208.180496 
z"/>
<path fill="#E1C4F2" opacity="1.000000" stroke="none" 
	d="
M283.806946,208.758148 
	C284.001953,209.007172 284.029266,209.503967 283.681763,209.893738 
	C282.493042,210.787064 281.651825,211.290619 280.810638,211.794174 
	C280.810638,211.794174 280.653381,211.540588 280.752136,211.430435 
	C281.771240,210.383224 282.691559,209.446182 283.806946,208.758148 
z"/>
<path fill="#B670DF" opacity="1.000000" stroke="none" 
	d="
M138.943573,150.186127 
	C139.334183,150.905319 139.462158,151.776672 139.345978,152.815933 
	C138.961517,152.101990 138.821228,151.220139 138.943573,150.186127 
z"/>
<path fill="#B670DF" opacity="1.000000" stroke="none" 
	d="
M139.936890,143.388428 
	C140.106049,144.197922 139.975311,144.894913 139.627823,145.755798 
	C139.486389,145.038422 139.561691,144.157181 139.936890,143.388428 
z"/>
<path fill="#E1C4F2" opacity="1.000000" stroke="none" 
	d="
M303.311798,353.975098 
	C303.683167,354.696045 303.764191,355.504730 303.740753,356.710571 
	C303.431335,356.092743 303.226410,355.077789 303.311798,353.975098 
z"/>
<path fill="#E1C4F2" opacity="1.000000" stroke="none" 
	d="
M299.042908,200.299805 
	C299.042908,200.299805 298.554474,200.309052 298.320404,200.241394 
	C298.665100,199.203018 299.243866,198.232285 300.214172,197.387787 
	C300.539398,197.852982 300.473053,198.191986 300.042053,198.872528 
	C299.465851,199.575989 299.254364,199.937897 299.042908,200.299805 
z"/>
<path fill="#E1C4F2" opacity="1.000000" stroke="none" 
	d="
M377.625305,188.031662 
	C376.748322,187.774475 375.977966,187.160187 375.132050,186.246964 
	C375.948303,186.523529 376.840118,187.099060 377.625305,188.031662 
z"/>
<path fill="#B670DF" opacity="1.000000" stroke="none" 
	d="
M309.080688,339.821167 
	C308.539368,339.530731 308.329498,339.063202 308.094910,338.326904 
	C308.387085,337.937042 308.703979,337.815948 309.263641,337.621429 
	C309.475006,338.246704 309.443573,338.945404 309.080688,339.821167 
z"/>
<path fill="#B670DF" opacity="1.000000" stroke="none" 
	d="
M60.595772,230.147888 
	C61.106152,230.208527 61.448627,230.430573 61.903805,230.944931 
	C61.486961,230.927933 60.957417,230.618622 60.595772,230.147888 
z"/>
<path fill="#E1C4F2" opacity="1.000000" stroke="none" 
	d="
M297.172363,200.358246 
	C297.038696,201.074631 296.526825,201.667572 295.718506,202.305222 
	C295.879425,201.644882 296.336792,200.939835 297.172363,200.358246 
z"/>
<path fill="#B670DF" opacity="1.000000" stroke="none" 
	d="
M308.372498,189.734665 
	C308.335388,190.433395 307.978333,191.189163 307.257446,191.934631 
	C307.279907,191.213455 307.666199,190.502579 308.372498,189.734665 
z"/>
<path fill="#F5EBFA" opacity="1.000000" stroke="none" 
	d="
M165.946045,304.704529 
	C166.368347,308.639984 164.750412,310.094727 161.355728,309.917297 
	C159.694046,309.830444 158.019165,309.822327 156.358810,309.921753 
	C153.268234,310.106750 152.191727,308.591614 152.367630,305.674774 
	C152.497787,303.516541 152.390518,301.344055 152.390518,299.177917 
	C152.390366,252.522568 152.368576,205.867188 152.460373,159.212021 
	C152.464600,157.068726 153.120377,153.307465 154.107513,153.082260 
	C157.353958,152.341583 160.962448,152.527847 164.272141,153.174896 
	C165.130173,153.342636 165.870453,156.492493 165.877457,158.275665 
	C165.979416,184.268951 165.947601,210.262772 165.947525,236.256454 
	C165.947464,258.917633 165.947144,281.578796 165.946045,304.704529 
z"/>
<path fill="#F5EBFA" opacity="1.000000" stroke="none" 
	d="
M336.052612,282.000000 
	C336.052612,240.685242 336.025909,199.870438 336.130157,159.055939 
	C336.135468,156.981171 336.907013,153.365036 337.943054,153.122681 
	C341.181580,152.365128 344.784760,152.530869 348.091827,153.156708 
	C348.901154,153.309875 349.538422,156.584442 349.545990,158.426834 
	C349.642426,181.915741 349.609680,205.405197 349.609619,228.894501 
	C349.609558,254.049713 349.470886,279.206329 349.725220,304.358978 
	C349.776520,309.433197 347.668365,310.272064 343.457855,309.956726 
	C339.719269,309.676697 335.565186,310.891388 335.951538,304.483887 
	C336.391937,297.180420 336.052887,289.830017 336.052612,282.000000 
z"/>
<path fill="#F4E9FA" opacity="1.000000" stroke="none" 
	d="
M223.000000,256.982422 
	C254.822861,256.983002 286.145844,256.951111 317.468323,257.063690 
	C319.378937,257.070557 322.753510,257.946228 322.931458,258.891296 
	C323.587921,262.377319 323.422424,266.094177 322.948975,269.641907 
	C322.870117,270.232910 319.720123,270.727356 317.986725,270.735657 
	C300.992798,270.817139 283.998352,270.786774 267.004028,270.786835 
	C239.513214,270.786926 212.021881,270.701965 184.532074,270.868042 
	C179.940170,270.895752 177.906418,269.855621 178.177963,264.785065 
	C178.578125,257.313751 178.457382,257.010284 184.512695,256.994263 
	C197.175049,256.960693 209.837555,256.983063 223.000000,256.982422 
z"/>
<path fill="#F8F2FC" opacity="1.000000" stroke="none" 
	d="
M175.645538,349.712830 
	C163.889420,349.712677 152.593231,349.733978 141.297211,349.703308 
	C135.960556,349.688812 135.248260,348.497162 137.063889,343.417084 
	C138.843323,338.438293 140.499496,333.413788 142.119980,328.380402 
	C143.191605,325.051880 144.897659,322.988129 148.859070,323.120087 
	C155.662460,323.346680 162.481552,323.302307 169.288559,323.140564 
	C173.058517,323.050995 174.922623,324.459381 175.871078,328.248383 
	C177.189194,333.514099 179.121368,338.640137 181.008408,343.745453 
	C182.859192,348.752747 180.546097,350.031647 175.645538,349.712830 
z"/>
<path fill="#F3E8FA" opacity="1.000000" stroke="none" 
	d="
M139.457397,260.609070 
	C139.806595,270.792023 139.806595,270.792114 129.972778,270.792053 
	C110.996162,270.791931 92.018066,270.662781 73.043961,270.880859 
	C68.214386,270.936340 66.614517,269.382812 66.863365,264.555237 
	C67.233643,257.372040 67.179924,256.999084 72.877777,256.990387 
	C93.352501,256.959076 113.827347,256.996826 134.302032,256.953186 
	C136.788239,256.947906 139.071182,256.926178 139.457397,260.609070 
z"/>
<path fill="#F3E8FA" opacity="1.000000" stroke="none" 
	d="
M415.998474,270.791809 
	C399.698364,270.791748 383.893982,270.593292 368.099426,270.900757 
	C362.645142,271.006927 362.141754,268.286346 362.334564,264.096954 
	C362.518036,260.111084 362.265137,256.746521 368.255096,256.848114 
	C388.374176,257.189270 408.503113,256.917297 428.626831,257.070190 
	C430.669495,257.085754 434.210724,258.050049 434.456390,259.153137 
	C435.186829,262.432922 434.815887,266.027191 434.376221,269.434143 
	C434.297729,270.042236 431.843964,270.675812 430.466949,270.723785 
	C425.815491,270.885803 421.155029,270.789520 415.998474,270.791809 
z"/>
<path fill="#F3E8FA" opacity="1.000000" stroke="none" 
	d="
M309.909241,217.060638 
	C307.599823,205.485199 317.144623,200.871231 322.671906,192.318085 
	C323.163269,195.608505 323.671051,197.464798 323.681030,199.323776 
	C323.750702,212.320404 323.804260,225.318741 323.630615,238.313431 
	C323.602112,240.446655 322.800201,244.139771 321.716400,244.394791 
	C318.440704,245.165527 314.815125,244.842926 311.412048,244.350845 
	C310.720734,244.250900 310.013489,241.555405 309.983582,240.043228 
	C309.835480,232.547836 309.911987,225.047989 309.909241,217.060638 
z"/>
<path fill="#F4E9FA" opacity="1.000000" stroke="none" 
	d="
M185.124359,199.870667 
	C191.208115,204.798706 192.766861,210.861938 192.212479,218.165894 
	C191.647980,225.603226 192.025833,233.116531 192.097473,240.595551 
	C192.127441,243.726105 190.841873,245.508728 187.659821,244.942444 
	C184.386108,244.359833 178.746979,247.447327 178.593872,241.289825 
	C178.214386,226.028015 178.624161,210.746460 178.741898,195.473022 
	C178.745544,194.999725 179.024994,194.528564 179.495804,193.055252 
	C181.528427,195.531311 183.202805,197.570969 185.124359,199.870667 
z"/>
<path fill="#F6EDFB" opacity="1.000000" stroke="none" 
	d="
M132.393158,200.288071 
	C132.675629,200.168579 132.897171,199.978180 133.479477,199.392761 
	C135.185349,197.952698 136.469513,196.836761 138.241119,195.297226 
	C138.571091,196.947891 138.915009,197.873825 138.917603,198.800705 
	C138.955276,212.271484 138.926300,225.742447 138.964691,239.213211 
	C138.974457,242.639221 137.789673,244.331985 133.970459,244.259537 
	C127.568817,244.138077 126.978752,243.766769 126.951988,237.107117 
	C126.933281,232.450577 127.067421,227.790176 126.921623,223.138123 
	C126.666672,215.002914 126.175774,206.855362 132.393158,200.288071 
z"/>
<path fill="#EEDEF8" opacity="1.000000" stroke="none" 
	d="
M99.866531,240.169861 
	C99.728188,237.742447 99.510742,235.762070 99.491188,233.779724 
	C99.395744,224.100891 102.300484,220.917267 113.309753,219.332672 
	C113.466270,221.756195 113.695503,224.120163 113.753006,226.488297 
	C113.829391,229.634323 113.772652,232.783630 113.771706,235.931519 
	C113.768936,245.142181 111.725182,246.908066 102.635216,244.831284 
	C101.456848,244.562057 100.785080,242.075455 99.866531,240.169861 
z"/>
<path fill="#EFE0F8" opacity="1.000000" stroke="none" 
	d="
M297.602875,223.673401 
	C297.416687,229.560287 297.209717,235.019638 297.040710,240.480164 
	C296.827728,247.360703 291.575317,244.522125 288.159851,245.013229 
	C283.806885,245.639175 283.909058,242.520203 283.939606,239.572861 
	C283.960236,237.581696 284.239136,235.534988 283.884125,233.608673 
	C282.636230,226.838089 285.579193,222.829727 291.689941,220.334244 
	C295.093536,218.944321 297.141876,219.191223 297.602875,223.673401 
z"/>
<path fill="#EFE0F8" opacity="1.000000" stroke="none" 
	d="
M218.062027,234.999176 
	C218.061890,236.150894 218.063477,236.817551 218.061295,237.484222 
	C218.037735,244.658386 214.226257,247.359589 207.430267,244.803513 
	C206.431885,244.428009 205.236496,242.987366 205.172821,241.974136 
	C204.766373,235.506973 204.525742,229.020615 204.570511,222.542938 
	C204.577530,221.526642 206.198822,219.816406 207.273544,219.639236 
	C211.152069,218.999863 217.995163,225.489868 218.056793,229.514221 
	C218.082306,231.180496 218.061646,232.847488 218.062027,234.999176 
z"/>
<path fill="#AF63DC" opacity="1.000000" stroke="none" 
	d="
M320.985565,338.122375 
	C322.667999,333.986664 324.624603,330.321289 325.564392,326.411499 
	C326.575531,322.204834 329.456909,321.223267 332.844757,321.118408 
	C339.829926,320.902130 346.855591,320.690125 353.802063,321.251068 
	C356.154663,321.441040 359.481415,323.470245 360.352295,325.515259 
	C363.024170,331.789520 364.910126,338.426727 366.731659,345.024963 
	C367.958862,349.470367 366.500092,350.988373 361.659241,351.002319 
	C349.173889,351.038300 336.688263,351.047546 324.203003,350.998230 
	C318.495026,350.975708 317.847900,349.858521 319.666107,344.298492 
	C320.275452,342.435059 320.442719,340.427063 320.985565,338.122375 
M330.586365,348.978149 
	C341.990356,348.978149 353.394318,348.978149 365.728210,348.978149 
	C362.896332,340.801880 360.617981,333.632751 357.822723,326.671143 
	C357.287994,325.339417 354.745270,324.124695 353.079620,324.056335 
	C346.091736,323.769440 339.085052,323.961700 332.085449,323.929871 
	C329.170502,323.916626 327.543274,325.093903 326.859131,328.108490 
	C325.984192,331.963806 324.820404,335.785248 323.415558,339.482391 
	C319.796173,349.007751 319.715759,348.977203 330.586365,348.978149 
z"/>
<path fill="#AD5EDB" opacity="1.000000" stroke="none" 
	d="
M361.036774,201.112991 
	C361.600647,197.861435 362.164490,195.091141 362.728333,192.320847 
	C364.798370,194.164474 366.875183,196.000656 368.929230,197.861923 
	C369.163788,198.074478 369.201111,198.525574 369.447418,198.701309 
	C377.742767,204.620651 378.795197,213.014053 378.030426,222.340225 
	C377.528870,228.456284 377.895172,234.646896 377.945190,240.803513 
	C377.973755,244.317963 376.335388,245.856155 372.822662,246.060867 
	C361.633514,246.712860 361.037994,246.221832 361.036957,235.042023 
	C361.035889,223.892761 361.036743,212.743515 361.036774,201.112991 
M363.044250,233.422134 
	C363.044647,234.919159 363.124481,236.421234 363.030121,237.912262 
	C362.771606,241.996750 363.696960,244.362579 368.729553,244.342209 
	C373.639008,244.322311 375.219147,242.524628 375.101349,237.896271 
	C374.906708,230.249756 374.477753,222.540649 375.194702,214.956909 
	C376.085663,205.532623 368.748871,201.792755 364.535553,195.856201 
	C364.038483,195.992157 363.541412,196.128113 363.044342,196.264069 
	C363.044342,208.323807 363.044342,220.383560 363.044250,233.422134 
z"/>
<path fill="#AD5EDB" opacity="1.000000" stroke="none" 
	d="
M132.026596,200.225449 
	C126.175774,206.855362 126.666672,215.002914 126.921623,223.138123 
	C127.067421,227.790176 126.933281,232.450577 126.951988,237.107117 
	C126.978752,243.766769 127.568817,244.138077 133.970459,244.259537 
	C137.789673,244.331985 138.974457,242.639221 138.964691,239.213211 
	C138.926300,225.742447 138.955276,212.271484 138.917603,198.800705 
	C138.915009,197.873825 138.571091,196.947891 138.241119,195.297226 
	C136.469513,196.836761 135.185349,197.952698 133.560303,199.186188 
	C133.190796,199.140030 133.077194,198.903702 133.145981,198.823212 
	C135.040482,196.605865 136.953537,194.404388 138.863525,192.200287 
	C139.563721,194.698349 140.826965,197.186996 140.868958,199.696060 
	C141.077438,212.156570 141.109085,224.625397 140.856735,237.084274 
	C140.797531,240.007919 140.009979,244.951538 138.488815,245.408539 
	C134.741455,246.534332 130.331223,245.875366 126.285866,245.273193 
	C125.345261,245.133179 124.195671,242.368820 124.165916,240.792664 
	C123.974579,230.658905 123.411079,220.453979 124.416168,210.417267 
	C124.779053,206.793640 129.129333,203.569351 132.026596,200.225449 
z"/>
<path fill="#DBB8EF" opacity="1.000000" stroke="none" 
	d="
M388.055786,237.795517 
	C388.056824,232.661865 388.146423,227.997681 388.033264,223.338409 
	C387.931641,219.153625 389.733978,218.527740 393.309692,219.924423 
	C402.303131,223.437286 402.720673,223.948090 402.721283,233.770126 
	C402.721375,235.435150 402.755310,237.101074 402.712402,238.765015 
	C402.547058,245.176514 401.902008,245.783279 395.410278,245.742691 
	C388.686981,245.700653 388.153320,245.158142 388.055786,237.795517 
M398.348511,242.062027 
	C403.805054,239.579300 400.502899,234.812485 400.684723,231.256729 
	C400.802368,228.955078 398.431580,226.262650 396.633331,224.223816 
	C395.526825,222.969284 393.398163,222.616272 390.944702,221.502747 
	C390.944702,226.592819 391.249298,231.216858 390.864075,235.782700 
	C390.427460,240.957809 392.512939,242.841141 398.348511,242.062027 
z"/>
<path fill="#D6AEEC" opacity="1.000000" stroke="none" 
	d="
M270.422119,241.821594 
	C269.688782,243.129532 269.125610,245.395187 268.189484,245.561493 
	C265.628052,246.016525 262.869629,245.845306 260.263824,245.441132 
	C257.256226,244.974625 254.349777,235.727997 257.124908,233.337082 
	C259.964417,230.890747 264.438446,230.241852 268.304535,229.208511 
	C268.808350,229.073853 269.952606,231.335114 270.202393,232.615723 
	C268.831909,232.496826 267.999023,231.927536 267.297668,232.059174 
	C264.889435,232.511200 261.200470,232.530594 260.462830,233.973801 
	C259.393677,236.065735 259.566040,239.927155 260.926514,241.756302 
	C261.960388,243.146332 265.664093,242.638199 268.190704,242.774979 
	C268.915192,242.814178 269.677277,242.158600 270.422119,241.821594 
z"/>
<path fill="#FCF9FE" opacity="1.000000" stroke="none" 
	d="
M231.568420,241.795181 
	C231.573349,239.146637 231.578262,236.498077 231.997025,233.283310 
	C233.350052,232.471069 234.329330,231.921555 235.220459,232.039291 
	C237.384155,232.325165 240.878128,232.353668 241.357574,233.511871 
	C242.323898,235.846268 242.435959,239.262939 241.337845,241.447723 
	C240.687836,242.740936 237.067001,242.712860 234.750137,242.917252 
	C233.730484,243.007187 232.631424,242.196793 231.568420,241.795181 
z"/>
<path fill="#FCF9FE" opacity="1.000000" stroke="none" 
	d="
M270.506805,241.448578 
	C269.677277,242.158600 268.915192,242.814178 268.190704,242.774979 
	C265.664093,242.638199 261.960388,243.146332 260.926514,241.756302 
	C259.566040,239.927155 259.393677,236.065735 260.462830,233.973801 
	C261.200470,232.530594 264.889435,232.511200 267.297668,232.059174 
	C267.999023,231.927536 268.831909,232.496826 270.011292,232.907181 
	C270.475830,235.738205 270.533661,238.406876 270.506805,241.448578 
z"/>
<path fill="#D6AEEC" opacity="1.000000" stroke="none" 
	d="
M231.400757,242.173492 
	C232.631424,242.196793 233.730484,243.007187 234.750137,242.917252 
	C237.067001,242.712860 240.687836,242.740936 241.337845,241.447723 
	C242.435959,239.262939 242.323898,235.846268 241.357574,233.511871 
	C240.878128,232.353668 237.384155,232.325165 235.220459,232.039291 
	C234.329330,231.921555 233.350052,232.471069 232.000900,232.865265 
	C231.923782,231.760162 232.414001,229.394836 232.566452,229.416412 
	C236.269470,229.940430 240.105667,230.302658 243.513596,231.688354 
	C244.631622,232.142929 245.010330,235.361893 245.058823,237.333160 
	C245.245239,244.909286 240.219330,248.349609 233.083954,245.541763 
	C232.210114,245.197906 231.837830,243.579544 231.400757,242.173492 
z"/>
<path fill="#AC5CDA" opacity="1.000000" stroke="none" 
	d="
M440.396851,218.096436 
	C440.870697,218.593735 440.896790,219.032486 440.838379,219.792496 
	C436.224457,219.725922 431.695038,219.338058 427.039734,218.580582 
	C431.258972,218.153275 435.604034,218.095581 440.396851,218.096436 
z"/>
<path fill="#B369DD" opacity="1.000000" stroke="none" 
	d="
M362.673523,158.244827 
	C363.618866,160.101349 364.313049,162.196259 364.957642,164.678436 
	C364.079529,162.871536 363.250977,160.677383 362.673523,158.244827 
z"/>
<path fill="#B874E0" opacity="1.000000" stroke="none" 
	d="
M177.038635,149.434860 
	C180.377518,150.532791 179.326309,152.647720 177.498795,154.900208 
	C177.103409,153.273880 177.058716,151.567581 177.038635,149.434860 
z"/>
<path fill="#B874E0" opacity="1.000000" stroke="none" 
	d="
M266.057159,217.623764 
	C266.969788,216.688477 268.234131,215.904449 269.842194,215.195206 
	C268.926910,216.104996 267.667877,216.940002 266.057159,217.623764 
z"/>
<path fill="#B874E0" opacity="1.000000" stroke="none" 
	d="
M280.962341,212.016296 
	C281.651825,211.290619 282.493042,210.787064 283.669403,210.142212 
	C284.197021,210.006851 284.389435,210.012802 284.870941,210.040375 
	C283.811401,210.787476 282.462738,211.512955 280.962341,212.016296 
z"/>
<path fill="#B56EDE" opacity="1.000000" stroke="none" 
	d="
M370.972351,323.376160 
	C371.640411,324.466583 372.261749,325.947479 372.828949,327.786346 
	C372.158417,326.685120 371.542023,325.225861 370.972351,323.376160 
z"/>
<path fill="#AC5CDA" opacity="1.000000" stroke="none" 
	d="
M416.044983,216.386017 
	C417.008636,216.355286 418.026184,216.693985 419.207703,217.323776 
	C418.280731,217.328400 417.189819,217.041931 416.044983,216.386017 
z"/>
<path fill="#AC5CDA" opacity="1.000000" stroke="none" 
	d="
M391.029053,204.367126 
	C391.885010,204.510559 392.786530,204.990936 393.771118,205.786835 
	C392.927704,205.636246 392.001129,205.170151 391.029053,204.367126 
z"/>
<path fill="#B369DD" opacity="1.000000" stroke="none" 
	d="
M371.573608,179.999084 
	C371.794647,180.625610 371.817383,181.073959 371.746216,181.848953 
	C371.102448,181.321945 370.552582,180.468292 370.041138,179.271805 
	C370.511414,179.226273 370.943359,179.523575 371.573608,179.999084 
z"/>
<path fill="#B369DD" opacity="1.000000" stroke="none" 
	d="
M359.870392,142.540710 
	C360.547791,142.940506 361.255127,143.672256 361.931641,144.736542 
	C361.233978,144.336914 360.567139,143.604782 359.870392,142.540710 
z"/>
<path fill="#AC5CDA" opacity="1.000000" stroke="none" 
	d="
M406.983887,213.352081 
	C407.544495,213.227539 408.128235,213.390564 408.844055,213.842529 
	C408.319733,213.967545 407.663391,213.803604 406.983887,213.352081 
z"/>
<path fill="#AC5CDA" opacity="1.000000" stroke="none" 
	d="
M400.034790,210.352386 
	C400.681519,210.393982 401.368286,210.778809 402.167847,211.457764 
	C401.545349,211.399811 400.810089,211.047699 400.034790,210.352386 
z"/>
<path fill="#B56EDE" opacity="1.000000" stroke="none" 
	d="
M374.254395,335.070312 
	C374.879883,335.307159 375.414215,335.877045 375.920502,336.763580 
	C375.316010,336.521271 374.739624,335.962280 374.254395,335.070312 
z"/>
<path fill="#B670DF" opacity="1.000000" stroke="none" 
	d="
M299.216461,200.472260 
	C299.254364,199.937897 299.465851,199.575989 299.992554,199.128723 
	C300.001862,199.577179 299.695953,200.110962 299.216461,200.472260 
z"/>
<path fill="#B369DD" opacity="1.000000" stroke="none" 
	d="
M319.443726,170.006210 
	C319.434326,169.376190 319.754639,168.674820 320.353973,167.841980 
	C320.346466,168.451950 320.059937,169.193405 319.443726,170.006210 
z"/>
<path fill="#B56EDE" opacity="1.000000" stroke="none" 
	d="
M445.721924,281.459167 
	C445.491730,282.047394 445.045715,282.487000 444.260315,282.911926 
	C444.449310,282.368378 444.977722,281.839447 445.721924,281.459167 
z"/>
<path fill="#B369DD" opacity="1.000000" stroke="none" 
	d="
M365.411072,169.969727 
	C366.016907,170.243301 366.492523,170.844757 366.941711,171.752106 
	C366.370514,171.471191 365.825653,170.884384 365.411072,169.969727 
z"/>
<path fill="#B369DD" opacity="1.000000" stroke="none" 
	d="
M316.464355,177.032013 
	C316.492645,176.397400 316.845367,175.701004 317.504700,174.917542 
	C317.470490,175.543732 317.129639,176.256958 316.464355,177.032013 
z"/>
<path fill="#B874E0" opacity="1.000000" stroke="none" 
	d="
M200.154938,199.288849 
	C200.730881,199.438660 201.327072,199.903809 201.963226,200.678497 
	C201.393845,200.526749 200.784515,200.065460 200.154938,199.288849 
z"/>
<path fill="#FFFEFF" opacity="1.000000" stroke="none" 
	d="
M308.376038,361.636475 
	C308.335052,361.639771 308.362976,361.734467 308.383728,361.749237 
	C308.404510,361.764008 308.417023,361.633148 308.376038,361.636475 
z"/>
<path fill="#FBF7FD" opacity="1.000000" stroke="none" 
	d="
M330.103271,348.978149 
	C319.715759,348.977203 319.796173,349.007751 323.415558,339.482391 
	C324.820404,335.785248 325.984192,331.963806 326.859131,328.108490 
	C327.543274,325.093903 329.170502,323.916626 332.085449,323.929871 
	C339.085052,323.961700 346.091736,323.769440 353.079620,324.056335 
	C354.745270,324.124695 357.287994,325.339417 357.822723,326.671143 
	C360.617981,333.632751 362.896332,340.801880 365.728210,348.978149 
	C353.394318,348.978149 341.990356,348.978149 330.103271,348.978149 
z"/>
<path fill="#F6EEFB" opacity="1.000000" stroke="none" 
	d="
M363.044312,232.932709 
	C363.044342,220.383560 363.044342,208.323807 363.044342,196.264069 
	C363.541412,196.128113 364.038483,195.992157 364.535553,195.856201 
	C368.748871,201.792755 376.085663,205.532623 375.194702,214.956909 
	C374.477753,222.540649 374.906708,230.249756 375.101349,237.896271 
	C375.219147,242.524628 373.639008,244.322311 368.729553,244.342209 
	C363.696960,244.362579 362.771606,241.996750 363.030121,237.912262 
	C363.124481,236.421234 363.044647,234.919159 363.044312,232.932709 
z"/>
<path fill="#FCFAFE" opacity="1.000000" stroke="none" 
	d="
M397.896118,242.075500 
	C392.512939,242.841141 390.427460,240.957809 390.864075,235.782700 
	C391.249298,231.216858 390.944702,226.592819 390.944702,221.502747 
	C393.398163,222.616272 395.526825,222.969284 396.633331,224.223816 
	C398.431580,226.262650 400.802368,228.955078 400.684723,231.256729 
	C400.502899,234.812485 403.805054,239.579300 397.896118,242.075500 
z"/>
</svg>